<?xml version="1.0" encoding="UTF-8"?>
<svg width="21px" height="21px" viewBox="0 0 21 21" version="1.1" xmlns="http://www.w3.org/2000/svg" xmlns:xlink="http://www.w3.org/1999/xlink">
    <!-- Generator: Sketch 52.4 (67378) - http://www.bohemiancoding.com/sketch -->
    <title>o1</title>
    <desc>Created with Sketch.</desc>
    <g id="atom" stroke="none" stroke-width="1" fill="none" fill-rule="evenodd">
        <g id="a--/-view-/-switcher-/-2" transform="translate(-9.000000, -9.000000)" fill="#909090" fill-rule="nonzero">
            <g id="a--/-icons-/-tile-/-grey" transform="translate(9.000000, 9.000000)">
                <path d="M0,0 L5,0 L5,5 L0,5 L0,0 Z M0,8 L5,8 L5,13 L0,13 L0,8 Z M0,16 L5,16 L5,21 L0,21 L0,16 Z M8,0 L13,0 L13,5 L8,5 L8,0 Z M8,8 L13,8 L13,13 L8,13 L8,8 Z M8,16 L13,16 L13,21 L8,21 L8,16 Z M16,0 L21,0 L21,5 L16,5 L16,0 Z M16,8 L21,8 L21,13 L16,13 L16,8 Z M16,16 L21,16 L21,21 L16,21 L16,16 Z" id="tile-icon"></path>
            </g>
        </g>
    </g>
</svg>