<?xml version="1.0" encoding="UTF-8"?>
<svg width="24px" height="21px" viewBox="0 0 24 21" version="1.1" xmlns="http://www.w3.org/2000/svg" xmlns:xlink="http://www.w3.org/1999/xlink">
    <!-- Generator: Sketch 52.4 (67378) - http://www.bohemiancoding.com/sketch -->
    <title>o2</title>
    <desc>Created with Sketch.</desc>
    <g id="atom" stroke="none" stroke-width="1" fill="none" fill-rule="evenodd">
        <g id="a--/-view-/-switcher-/-2" transform="translate(-44.000000, -9.000000)" fill="#FFFFFF" fill-rule="nonzero">
            <g id="a--/-icons-/-list-/-white" transform="translate(44.000000, 9.000000)">
                <path d="M0,0 L5,0 L5,5 L0,5 L0,0 Z M8,0 L24,0 L24,5 L8,5 L8,0 Z M8,8 L24,8 L24,13 L8,13 L8,8 Z M8,16 L24,16 L24,21 L8,21 L8,16 Z M0,8 L5,8 L5,13 L0,13 L0,8 Z M0,16 L5,16 L5,21 L0,21 L0,16 Z" id="list-icon"></path>
            </g>
        </g>
    </g>
</svg>