<?xml version="1.0" encoding="UTF-8"?>
<svg width="27px" height="24px" viewBox="0 0 27 24" version="1.1" xmlns="http://www.w3.org/2000/svg" xmlns:xlink="http://www.w3.org/1999/xlink">
    <!-- Generator: sketchtool 52.4 (67378) - http://www.bohemiancoding.com/sketch -->
    <title>C99FF06C-460F-4963-B774-7B4A5354311A</title>
    <desc>Created with sketchtool.</desc>
    <g id="atom" stroke="none" stroke-width="1" fill="none" fill-rule="evenodd">
        <g id="a--/-button-/-cart-/-empty" transform="translate(-18.000000, -7.000000)" fill="#FFFFFF" fill-rule="nonzero">
            <g id="Group-2" transform="translate(18.000000, 7.000000)">
                <g id="a--/-icons-/-cart">
                    <path d="M10.26,18.7826087 C11.7487206,18.7826087 12.95994,19.952869 12.96,21.3913043 C12.96,22.8297397 11.7487806,24 10.26,24 C8.77121944,24 7.56,22.8297397 7.56,21.3913043 C7.56,19.952869 8.77121944,18.7826087 10.26,18.7826087 Z M10.26,22.5433156 C10.9174763,22.5433156 11.4524515,22.0265471 11.4524515,21.3911885 C11.4524515,20.7559457 10.9174763,20.2390614 10.26,20.2390614 C9.60252371,20.2390614 9.06754847,20.7558878 9.06754847,21.3911885 C9.06754847,22.0264313 9.60246375,22.5433156 10.26,22.5433156 Z M19.98,18.7826087 C21.4687206,18.7826087 22.67994,19.952869 22.68,21.3913043 C22.68,22.8297397 21.4687806,24 19.98,24 C18.4912194,24 17.28,22.8297397 17.28,21.3913043 C17.28,19.952869 18.4912194,18.7826087 19.98,18.7826087 Z M19.98,22.5433156 C20.6374763,22.5433156 21.1724515,22.0265471 21.1724515,21.3911885 C21.1724515,20.7559457 20.6375363,20.2390614 19.98,20.2390614 C19.3225237,20.2390614 18.7875485,20.7558878 18.7875485,21.3911885 C18.7875485,22.0264313 19.3224637,22.5433156 19.98,22.5433156 Z M19.8619805,10.4347826 C20.2253832,10.4347826 20.52,10.6684052 20.52,10.9565217 C20.52,11.2446798 20.2253832,11.4782609 19.8619282,11.4782609 L11.4580718,11.4782609 C11.0946168,11.4782609 10.8,11.2446798 10.8,10.9565217 C10.8,10.6683637 11.0946168,10.4347826 11.4580718,10.4347826 L19.8619805,10.4347826 Z M20.795754,7.30434783 C21.2399128,7.30434783 21.6,7.53797041 21.6,7.82608696 C21.6,8.114245 21.2399128,8.34782609 20.79569,8.34782609 L10.52431,8.34782609 C10.0800872,8.34782609 9.72,8.114245 9.72,7.82608696 C9.72,7.53792891 10.0800872,7.30434783 10.52431,7.30434783 L20.795754,7.30434783 Z M26.7016185,4.42422686 C26.9544801,4.71141345 27.0531989,5.08432154 26.9724625,5.44712466 L25.1181624,13.7788552 C24.9918634,14.3464917 24.4456931,14.7585017 23.8196302,14.7585017 L7.42492345,14.7585017 L7.81510536,16.5117898 L23.6968645,16.5117898 C24.0629995,16.5117898 24.3597888,16.7865282 24.3597888,17.1254601 C24.3597888,17.464392 24.0629995,17.7391304 23.6968645,17.7391304 L7.81505262,17.7391304 C7.18893695,17.7391304 6.64281938,17.3271204 6.51646773,16.7594839 L3.3088444,2.34591957 L0.399065023,1.17671917 C0.0633050224,1.04183959 -0.0908376634,0.680403334 0.0550257198,0.369443184 C0.2007309,0.0585806665 0.59112375,-0.0841095249 0.927041954,0.0509653159 L3.8367686,1.2201169 C4.23232942,1.37911175 4.52036478,1.70735289 4.60742929,2.09827422 L5.02445302,3.97228509 L25.6738776,3.97228509 C26.0741845,3.97228509 26.4488098,4.13699145 26.7016185,4.42422686 Z M23.8196302,13.5312587 L25.6738249,5.19957695 L5.29761727,5.19957695 L7.15181193,13.5312587 L23.8196302,13.5312587 Z" id="Combined-Shape"></path>
                </g>
            </g>
        </g>
    </g>
</svg>