<?xml version="1.0" encoding="UTF-8"?>
<svg width="40px" height="40px" viewBox="0 0 40 40" version="1.1" xmlns="http://www.w3.org/2000/svg" xmlns:xlink="http://www.w3.org/1999/xlink">
    <!-- Generator: sketchtool 52.4 (67378) - http://www.bohemiancoding.com/sketch -->
    <title>BBE3AD1A-DF0A-4D4F-BE9E-E47DBF8AF3C3</title>
    <desc>Created with sketchtool.</desc>
    <g id="organism" stroke="none" stroke-width="1" fill="none" fill-rule="evenodd" opacity="0.4">
        <g id="o--/-footer-/-desktop" transform="translate(-1320.000000, -90.000000)" fill="#FFFFFF" fill-rule="nonzero">
            <g id="a--/-icons-/-social-/-instragram" transform="translate(1320.000000, 90.000000)">
                <path d="M25.8911111,10.6133333 L14.0013333,10.6133333 C12.1035556,10.6133333 10.5595556,12.1573333 10.5595556,14.0551111 L10.5595556,25.9448889 C10.5595556,27.8426667 12.1035556,29.3871111 14.0013333,29.3871111 L25.8911111,29.3871111 C27.7888889,29.3871111 29.3333333,27.8431111 29.3333333,25.9448889 L29.3333333,14.0551111 C29.3333333,12.1573333 27.7893333,10.6133333 25.8911111,10.6133333 Z M19.9462222,26.1804444 C16.5386667,26.1804444 13.7662222,23.408 13.7662222,20 C13.7662222,16.5924444 16.5386667,13.82 19.9462222,13.82 C23.3542222,13.82 26.1266667,16.5924444 26.1266667,20 C26.1266667,23.4075556 23.3537778,26.1804444 19.9462222,26.1804444 Z M19.9462222,-1.42108547e-14 C30.9617778,-1.42108547e-14 39.8924444,8.93066667 39.8924444,19.9462222 C39.8924444,30.9617778 30.9617778,39.8924444 19.9462222,39.8924444 C8.93066667,39.8924444 -1.42108547e-14,30.9617778 -1.42108547e-14,19.9462222 C-1.42108547e-14,8.93066667 8.93066667,-1.42108547e-14 19.9462222,-1.42108547e-14 Z M31.9444444,25.9448889 L31.9444444,14.0551111 C31.9444444,10.7173333 29.2293333,8.00177778 25.8911111,8.00177778 L14.0013333,8.00177778 C10.6635556,8.00177778 7.948,10.7173333 7.948,14.0551111 L7.948,25.9448889 C7.948,29.2831111 10.6635556,31.9982222 14.0013333,31.9982222 L25.8911111,31.9982222 C29.2293333,31.9982222 31.9444444,29.2831111 31.9444444,25.9448889 Z M26.3253333,15.0977778 C25.5186667,15.0977778 24.8626667,14.4417778 24.8626667,13.6355556 C24.8626667,12.8293333 25.5186667,12.1733333 26.3253333,12.1733333 C27.1315556,12.1733333 27.7875556,12.8293333 27.7875556,13.6355556 C27.7875556,14.4417778 27.1315556,15.0977778 26.3253333,15.0977778 Z M19.9462222,16.4315556 C21.9137778,16.4315556 23.5146667,18.0328889 23.5146667,19.9995556 C23.5146667,21.9675556 21.9142222,23.5688889 19.9462222,23.5688889 C17.9791111,23.5688889 16.3773333,21.9675556 16.3773333,19.9995556 C16.3773333,18.0324444 17.9791111,16.4315556 19.9462222,16.4315556 Z" id="insta"></path>
            </g>
        </g>
    </g>
</svg>