<?xml version="1.0" encoding="UTF-8"?>
<svg width="16px" height="16px" viewBox="0 0 16 16" version="1.1" xmlns="http://www.w3.org/2000/svg" xmlns:xlink="http://www.w3.org/1999/xlink">
    <!-- Generator: sketchtool 52.4 (67378) - http://www.bohemiancoding.com/sketch -->
    <title>A6452BB4-2E25-4075-BC25-2F17E2A9745E</title>
    <desc>Created with sketchtool.</desc>
    <g id="organism" stroke="none" stroke-width="1" fill="none" fill-rule="evenodd">
        <g id="o--/-header-/-desktop" transform="translate(-1450.000000, -32.000000)" fill="#FFFFFF" fill-rule="nonzero">
            <g id="a--/-icons-/-login" transform="translate(1450.000000, 32.000000)">
                <path d="M10.9629475,0 C8.17777778,0 5.92592593,2.25185185 5.92592593,5.03702154 C5.92592593,5.62961414 6.04444444,6.22220673 6.22220673,6.81479932 L0,13.037037 L0,16 L2.96296296,16 L2.96296296,14.2222222 L4.74074074,14.2222222 L4.74074074,12.4444444 L6.51851852,12.4444444 L9.18516969,9.77779327 C9.71851852,9.95555556 10.3111111,10.0740741 10.9629475,10.0740741 C13.7481481,10.0740741 15.999969,7.82222222 15.999969,5.03705253 C15.999969,2.25188284 13.7481481,0 10.9629475,0 Z M12.4444444,5.33333333 C11.4370215,5.33333333 10.6666667,4.56297846 10.6666667,3.55555556 C10.6666667,2.54813266 11.4370215,1.77777778 12.4444444,1.77777778 C13.4518673,1.77777778 14.2222222,2.54813266 14.2222222,3.55555556 C14.2222222,4.56297846 13.4518673,5.33333333 12.4444444,5.33333333 Z" id="login-icon"></path>
            </g>
        </g>
    </g>
</svg>