<?xml version="1.0" encoding="UTF-8"?>
<svg width="15px" height="11px" viewBox="0 0 15 11" version="1.1" xmlns="http://www.w3.org/2000/svg" xmlns:xlink="http://www.w3.org/1999/xlink">
    <!-- Generator: sketchtool 52.4 (67378) - http://www.bohemiancoding.com/sketch -->
    <title>8371F393-D689-4BE9-934B-A71A55C33E6E</title>
    <desc>Created with sketchtool.</desc>
    <g id="organism" stroke="none" stroke-width="1" fill="none" fill-rule="evenodd">
        <g id="o--/-header-/-desktop" transform="translate(-935.000000, -35.000000)" fill="#FFFFFF">
            <g id="a--/-icons-/-mail-/-white" transform="translate(935.000000, 35.000000)">
                <path d="M7.5,7.63888889 L9.28148571,6.05069841 L14.3718857,10.4978413 C14.1877714,10.6727937 13.9388571,10.781746 13.6642286,10.781746 L1.33577143,10.781746 C1.06011429,10.781746 0.810171429,10.6727937 0.625028571,10.4978413 L5.71851429,6.05069841 L7.5,7.63888889 Z M14.3749714,0.589460317 L7.5,6.59126984 L0.627085714,0.591555556 C0.812228571,0.414507937 1.06114286,0.305555556 1.33577143,0.305555556 L13.6642286,0.305555556 C13.9409143,0.305555556 14.1898286,0.413460317 14.3749714,0.589460317 Z M0.3,1.22536508 L5.27108571,5.6264127 L0.3,9.92898413 L0.3,1.22536508 Z M9.72891429,5.6264127 L14.7,1.22222222 L14.7,9.92898413 L9.72891429,5.6264127 Z" id="mail"></path>
            </g>
        </g>
    </g>
</svg>