<?xml version="1.0" encoding="UTF-8"?>
<svg width="15px" height="15px" viewBox="0 0 15 15" version="1.1" xmlns="http://www.w3.org/2000/svg" xmlns:xlink="http://www.w3.org/1999/xlink">
    <!-- Generator: sketchtool 52.4 (67378) - http://www.bohemiancoding.com/sketch -->
    <title>38942975-E558-48A3-9899-4FC0CCDA79C5</title>
    <desc>Created with sketchtool.</desc>
    <g id="organism" stroke="none" stroke-width="1" fill="none" fill-rule="evenodd">
        <g id="o--/-header-/-desktop" transform="translate(-655.000000, -34.000000)" fill="#FFFFFF">
            <g id="a--/-icons-/-call-/-white" transform="translate(655.000000, 34.000000)">
                <path d="M14.6637274,11.8808613 L12.3472113,9.61941178 C11.8858043,9.170832 11.1217052,9.18446102 10.6442241,9.65070804 L9.47715335,10.7896565 C9.40341958,10.7499893 9.32710017,10.7085554 9.24685921,10.6645976 C8.50986624,10.2659909 7.50116582,9.71965236 6.4397184,8.68279538 C5.37512511,7.64375103 4.81490358,6.65762428 4.40529545,5.93776816 C4.3620722,5.86150455 4.32065891,5.78797516 4.27976273,5.71814747 L5.06303862,4.95471215 L5.44812628,4.57835775 C5.92634,4.1114377 5.93952676,3.36579581 5.47919703,2.91591203 L3.162681,0.654210159 C2.70235128,0.204957348 1.93790745,0.218586366 1.45969373,0.685506423 L0.806820179,1.32644885 L0.82466108,1.34373751 C0.605743743,1.616402 0.422809866,1.93087896 0.286676034,2.27000595 C0.161186411,2.59281176 0.0830570541,2.9008528 0.047332158,3.20952482 C-0.258548798,5.68479003 0.900247893,7.94699667 4.04507301,11.0167647 C8.39217662,15.259764 11.8953711,14.9392297 12.0465017,14.9235816 C12.3756534,14.8851763 12.6911012,14.8084079 13.0116772,14.6868825 C13.3560841,14.555556 13.6780391,14.377243 13.9572018,14.1640162 L13.9714659,14.1763833 L14.6328721,13.5441903 C15.1100947,13.0773544 15.1238416,12.3314601 14.6637274,11.8808613 Z" id="call-icon"></path>
            </g>
        </g>
    </g>
</svg>