<?xml version="1.0" encoding="UTF-8"?>
<svg width="13px" height="16px" viewBox="0 0 13 16" version="1.1" xmlns="http://www.w3.org/2000/svg" xmlns:xlink="http://www.w3.org/1999/xlink">
    <!-- Generator: sketchtool 52.4 (67378) - http://www.bohemiancoding.com/sketch -->
    <title>B20DE2DB-1F2D-458D-9AC4-EC523B28A5B0</title>
    <desc>Created with sketchtool.</desc>
    <g id="organism" stroke="none" stroke-width="1" fill="none" fill-rule="evenodd">
        <g id="o--/-header-/-desktop" transform="translate(-1322.000000, -31.000000)" fill="#949393" fill-rule="nonzero">
            <g id="a--/-icons-/-register" transform="translate(1322.000000, 31.000000)">
                <path d="M1.41595509,4.80588476 L1.41595509,6.47650184 L1.3018734,6.47650184 C0.583829824,6.47650184 0,7.04536167 0,7.74499387 L0,14.731508 C0,15.4311402 0.583829824,16 1.3018734,16 L11.3075087,16 C12.0255522,16 12.6093821,15.4311402 12.6093821,14.731508 L12.6093821,7.74172456 C12.6093821,7.04209236 12.0255522,6.47323253 11.3075087,6.47323253 L11.2739552,6.47323253 L11.2739552,4.80261545 C11.2739552,2.15447487 9.06278364,0 6.34495515,0 C3.62712666,0.00326930936 1.41595509,2.15774418 1.41595509,4.80588476 Z M7.07642011,11.5472007 C6.97575979,11.6191255 6.94891704,11.687781 6.94891704,11.8022068 C6.95227239,12.3154884 6.95227239,12.8255006 6.95227239,13.3387822 C6.96233842,13.5512873 6.85161207,13.7605231 6.65700213,13.8553331 C6.19732003,14.0841847 5.73763792,13.7637924 5.73763792,13.3387822 L5.73763792,13.3355129 C5.73763792,12.8222313 5.73763792,12.3089497 5.74099327,11.7956682 C5.74099327,11.6910503 5.71750586,11.6223948 5.62355623,11.5537393 C5.14709741,11.2104618 4.98939625,10.6252554 5.22762566,10.1119738 C5.45914439,9.61176951 6.02619749,9.31753167 6.55969716,9.42214957 C7.15359301,9.53984471 7.5663003,10.0040866 7.57301099,10.5827544 C7.57301099,10.9848794 7.40859914,11.3118104 7.07642011,11.5472007 Z M3.57344116,4.80588476 C3.57344116,3.31507969 4.81827372,2.10543523 6.34495515,2.10543523 C7.87499193,2.10543523 9.11646915,3.318349 9.11646915,4.80588476 L9.11646915,6.47650184 L3.57344116,6.47650184 L3.57344116,4.80588476 Z" id="register-icon"></path>
            </g>
        </g>
    </g>
</svg>