<?xml version="1.0" encoding="UTF-8"?>
<svg width="40px" height="40px" viewBox="0 0 40 40" version="1.1" xmlns="http://www.w3.org/2000/svg" xmlns:xlink="http://www.w3.org/1999/xlink">
    <!-- Generator: sketchtool 52.4 (67378) - http://www.bohemiancoding.com/sketch -->
    <title>155F5DBA-FAA9-4620-AC94-B3AEFB0A83AA</title>
    <desc>Created with sketchtool.</desc>
    <g id="organism" stroke="none" stroke-width="1" fill="none" fill-rule="evenodd" opacity="0.4">
        <g id="o--/-footer-/-desktop" transform="translate(-1380.000000, -90.000000)" fill="#FFFFFF" fill-rule="nonzero">
            <g id="a--/-icons-/-social-/-youtube" transform="translate(1380.000000, 90.000000)">
                <path d="M19.9750308,0 C8.9438193,0 0,8.9438193 0,19.9750308 C0,31.0062423 8.9438193,39.9500616 19.9750308,39.9500616 C31.0062423,39.9500616 39.9500616,31.0062423 39.9500616,19.9750308 C39.9500616,8.94135524 31.0062423,0 19.9750308,0 Z M32.2471458,24.4468994 C32.1122793,26.1098152 30.8488706,28.2321971 29.083614,28.5393018 C23.4281725,28.9787269 16.7265708,28.9238604 10.8689117,28.5393018 C9.04123203,28.3095688 7.84016427,26.1073511 7.70537988,24.4468994 C7.42069815,20.9563039 7.42069815,18.9687885 7.70537988,15.4781109 C7.84024641,13.8176591 9.0712115,11.6279261 10.8689117,11.4281725 C16.6591376,10.9412731 23.3982752,11.0461602 29.083614,11.4281725 C31.1160575,11.5030801 32.1123614,13.5979466 32.2471458,15.2608624 C32.5268172,18.75154 32.5268172,20.9563039 32.2471458,24.4468994 Z M17.4781109,24.9687885 L24.9687885,19.9750308 L17.4781109,14.9812731 L17.4781109,24.9687885 Z" id="youtube"></path>
            </g>
        </g>
    </g>
</svg>